<svg width="71" height="80" viewBox="0 0 71 80" fill="none" xmlns="http://www.w3.org/2000/svg">
<path d="M22.812 0.582031L16.3438 8.02728L23.4806 7.83511L22.812 0.582031Z" fill="#FF413B"/>
<path d="M16.5215 9.12024V57.0338L27.1462 46.2423L30.3521 46.8667L31.657 49.1643L30.1346 55.4808L27.6134 58.3548V63.6305L63.652 63.3663L63.1526 0.898438H23.3683L22.9333 8.28763H16.5215V9.12024Z" fill="#FF413B" fill-opacity="0.3"/>
<path d="M16.4242 42.0352L16.9478 55.7808L26.5093 46.6944H28.958L31.3585 48.9119L30.3516 55.7808L27.4598 57.8542L26.9926 63.0259L35.4424 63.8345V66.7565L33.5414 71.2236L31.3585 72.3925L30.8187 78.6605H5.71094V53.4992L11.1723 45.1173L16.4242 42.0352Z" fill="#FF413B"/>
<path d="M21.7487 70.5984C21.5344 70.597 21.3262 70.5276 21.1542 70.4004C20.9823 70.2733 20.8557 70.0949 20.7928 69.8913C20.7298 69.6878 20.734 69.4695 20.8045 69.2684C20.875 69.0672 21.0082 68.8937 21.1849 68.7731C22.6861 67.7647 24.103 66.6375 25.4219 65.4027C26.1226 64.7062 26.3804 62.2004 26.0743 59.1343C26.032 58.7505 26.095 58.3626 26.2567 58.0116C26.4184 57.6607 26.6727 57.3598 26.9926 57.1409C28.746 55.9442 29.9599 54.1144 30.3758 52.0413C30.714 49.2954 30.1422 48.1025 29.5702 47.5982C29.2124 47.2799 28.7452 47.1108 28.2653 47.1258L14.5716 59.0622C14.4722 59.1489 14.3565 59.2154 14.2312 59.2577C14.106 59.3 13.9736 59.3173 13.8416 59.3088C13.5749 59.2916 13.3261 59.1698 13.1499 58.9701C12.9736 58.7706 12.8844 58.5096 12.9017 58.2446C12.9191 57.9796 13.0417 57.7323 13.2425 57.5571L27.3873 45.2365L27.6531 45.1804C28.239 45.0814 28.8399 45.1157 29.4105 45.2807C29.9812 45.4457 30.5067 45.7371 30.9476 46.1331C32.2446 47.326 32.7117 49.4235 32.3412 52.3615C31.8353 54.9624 30.3226 57.262 28.1284 58.766C28.1078 58.7805 28.0913 58.7997 28.08 58.822C28.0688 58.8444 28.0633 58.8692 28.0639 58.8941C28.3458 61.672 28.3539 65.2986 26.8154 66.8117C25.4209 68.1471 23.9175 69.3654 22.3206 70.4542C22.1478 70.5557 21.9493 70.6057 21.7487 70.5984Z" fill="#171A1C"/>
<path d="M31.1582 79.9982H7.25061C6.66952 79.9982 6.11223 79.7683 5.70134 79.3597C5.29045 78.9519 5.05961 78.3981 5.05961 77.8202V55.7007C5.03545 46.5103 15.6199 41.1466 16.1112 40.9224C16.229 40.8634 16.3575 40.8283 16.4891 40.8189C16.6207 40.8096 16.7528 40.8262 16.8779 40.8679C17.0029 40.9096 17.1184 40.9755 17.2178 41.0618C17.317 41.1481 17.3982 41.2531 17.4565 41.3707C17.5771 41.6074 17.5982 41.8821 17.5152 42.1344C17.4321 42.3866 17.2516 42.5957 17.0134 42.7157C16.9087 42.7637 7.0895 47.7512 7.0895 55.7007V77.8202C7.0895 77.8668 7.10817 77.9118 7.14141 77.9452C7.17464 77.9778 7.21972 77.9965 7.26671 77.9965H31.1582C31.4252 77.9965 31.6813 78.1021 31.8702 78.2893C32.059 78.4773 32.1651 78.7321 32.1651 78.9969C32.1651 79.2626 32.059 79.5174 31.8702 79.7046C31.6813 79.8925 31.4252 79.9982 31.1582 79.9982Z" fill="#171A1C"/>
<path d="M31.3585 79.9399C31.226 79.9414 31.0945 79.9158 30.9719 79.8661C30.8493 79.8164 30.7378 79.7426 30.6441 79.6494C30.5504 79.5561 30.4763 79.4458 30.4261 79.3239C30.3758 79.2019 30.3505 79.0714 30.3516 78.9394V71.3661L31.1572 71.206C31.286 71.206 34.7094 70.3014 34.7094 63.5046C34.7094 63.2392 34.8155 62.9846 35.0043 62.797C35.1931 62.6093 35.4492 62.5039 35.7163 62.5039C35.9834 62.5039 36.2395 62.6093 36.4283 62.797C36.6171 62.9846 36.7232 63.2392 36.7232 63.5046C36.7312 70.0372 33.8314 72.2067 32.3654 72.8471V78.9076C32.3708 79.0419 32.3488 79.1755 32.3005 79.3014C32.2523 79.4272 32.1788 79.5414 32.0847 79.6385C31.9905 79.7348 31.8776 79.8117 31.7528 79.863C31.628 79.915 31.4938 79.9414 31.3585 79.9399Z" fill="#171A1C"/>
<path d="M63.2078 64.51H27.8701C27.603 64.51 27.3469 64.4045 27.1581 64.2169C26.9692 64.0292 26.8632 63.7747 26.8632 63.5093C26.8632 63.2439 26.9692 62.9894 27.1581 62.8017C27.3469 62.614 27.603 62.5086 27.8701 62.5086H62.652V2.00212H23.037L17.5273 7.526V56.04C17.5273 56.3054 17.4211 56.56 17.2323 56.7477C17.0435 56.9353 16.7874 57.0408 16.5204 57.0408C16.2533 57.0408 15.9972 56.9353 15.8084 56.7477C15.6196 56.56 15.5135 56.3054 15.5135 56.04V7.30185C15.5115 7.11198 15.5475 6.92361 15.6194 6.7477C15.6913 6.57179 15.7977 6.41183 15.9323 6.27713L21.7482 0.433021C21.8864 0.290597 22.0532 0.178547 22.2377 0.104089C22.4223 0.0296311 22.6204 -0.00558216 22.8195 0.000718111H63.2078C63.5952 0.00283374 63.9661 0.157275 64.2393 0.43029C64.5125 0.703306 64.6658 1.07269 64.6658 1.45774V63.101C64.6553 63.4783 64.4971 63.8367 64.2248 64.0998C63.9525 64.363 63.5876 64.5102 63.2078 64.51Z" fill="#171A1C"/>
<path d="M23.0703 9.11746H16.5215C16.2545 9.11746 15.9984 9.01197 15.8095 8.82431C15.6207 8.63665 15.5146 8.3821 15.5146 8.11676C15.5146 7.85134 15.6207 7.5968 15.8095 7.40913C15.9984 7.22146 16.2545 7.11603 16.5215 7.11603H22.6998V1.03976C22.6998 0.774362 22.8059 0.51983 22.9947 0.332162C23.1836 0.144493 23.4397 0.0390625 23.7067 0.0390625C23.9737 0.0390625 24.2298 0.144493 24.4187 0.332162C24.6075 0.51983 24.7136 0.774362 24.7136 1.03976V7.44426C24.7235 7.66323 24.6882 7.88187 24.6097 8.0867C24.5311 8.29153 24.4111 8.47819 24.2571 8.63501C24.1031 8.79192 23.9182 8.91566 23.7141 8.99861C23.5099 9.08157 23.2909 9.12204 23.0703 9.11746Z" fill="#171A1C"/>
<path d="M53.0267 20.2642H25.1147C24.581 20.2642 24.0693 20.1576 23.6918 19.9676C23.3145 19.7776 23.1025 19.5199 23.1025 19.2513C23.1025 18.9826 23.3145 18.725 23.6918 18.535C24.0693 18.345 24.581 18.2383 25.1147 18.2383H53.0267C53.5603 18.2383 54.0722 18.345 54.4495 18.535C54.8269 18.725 55.0388 18.9826 55.0388 19.2513C55.0388 19.5199 54.8269 19.7776 54.4495 19.9676C54.0722 20.1576 53.5603 20.2642 53.0267 20.2642Z" fill="#171A1C"/>
<path d="M53.7064 32.4205H25.7944C25.2607 32.4205 24.7489 32.3138 24.3715 32.1238C23.9942 31.9338 23.7822 31.6762 23.7822 31.4075C23.7822 31.1389 23.9942 30.8812 24.3715 30.6913C24.7489 30.5013 25.2607 30.3945 25.7944 30.3945H53.7064C54.24 30.3945 54.7519 30.5013 55.1292 30.6913C55.5065 30.8812 55.7185 31.1389 55.7185 31.4075C55.7185 31.6762 55.5065 31.9338 55.1292 32.1238C54.7519 32.3138 54.24 32.4205 53.7064 32.4205Z" fill="#171A1C"/>
<path d="M53.7066 38.4949H25.7946C25.2609 38.4949 24.7491 38.3882 24.3718 38.1982C23.9944 38.0082 23.7825 37.7505 23.7825 37.4819C23.7825 37.2132 23.9944 36.9556 24.3718 36.7656C24.7491 36.5756 25.2609 36.4689 25.7946 36.4689H53.7066C54.2403 36.4689 54.7521 36.5756 55.1294 36.7656C55.5068 36.9556 55.7187 37.2132 55.7187 37.4819C55.7187 37.7505 55.5068 38.0082 55.1294 38.1982C54.7521 38.3882 54.2403 38.4949 53.7066 38.4949Z" fill="#171A1C"/>
<path d="M44.1864 26.3386H25.8019C25.2663 26.3386 24.7526 26.2319 24.374 26.0419C23.9952 25.8519 23.7825 25.5943 23.7825 25.3256C23.7825 25.057 23.9952 24.7993 24.374 24.6093C24.7526 24.4193 25.2663 24.3126 25.8019 24.3126H44.1864C44.722 24.3126 45.2357 24.4193 45.6143 24.6093C45.9931 24.7993 46.2058 25.057 46.2058 25.3256C46.2058 25.5943 45.9931 25.8519 45.6143 26.0419C45.2357 26.2319 44.722 26.3386 44.1864 26.3386Z" fill="#171A1C"/>
<path d="M69.6607 79.9431H1.00689C0.739844 79.9431 0.48374 79.8375 0.294912 79.6503C0.106083 79.4623 0 79.2075 0 78.9426C0 78.677 0.106083 78.4222 0.294912 78.235C0.48374 78.047 0.739844 77.9414 1.00689 77.9414H69.6607C69.9277 77.9414 70.1838 78.047 70.3727 78.235C70.5615 78.4222 70.6675 78.677 70.6675 78.9426C70.6675 79.2075 70.5615 79.4623 70.3727 79.6503C70.1838 79.8375 69.9277 79.9431 69.6607 79.9431Z" fill="#171A1C"/>
</svg>
