<svg width="71" height="82" viewBox="0 0 71 82" fill="none" xmlns="http://www.w3.org/2000/svg">
<path d="M23.3221 75.5119H68.6999C69.0146 75.5119 69.3165 75.3856 69.539 75.1607C69.7616 74.9357 69.8866 74.6307 69.8866 74.3126V2.1993C69.8866 1.88123 69.7616 1.57618 69.539 1.35127C69.3165 1.12636 69.0146 1 68.6999 1H8.22036C7.90477 0.999992 7.60197 1.12606 7.37797 1.35071C7.15397 1.57536 7.02693 1.88039 7.02454 2.1993V59.0422L23.3221 75.5119Z" fill="#FF413B" stroke="#171A1C" stroke-width="2" stroke-miterlimit="10"/>
<path d="M47.5645 6.48828H2.18677C1.87202 6.48828 1.57016 6.61464 1.3476 6.83955C1.12503 7.06446 1 7.3695 1 7.68758V79.8009C1 80.119 1.12503 80.424 1.3476 80.6489C1.57016 80.8738 1.87202 81.0002 2.18677 81.0002H62.6754C62.9901 81.0002 63.292 80.8738 63.5145 80.6489C63.7371 80.424 63.8621 80.119 63.8621 79.8009V22.958L47.5645 6.48828Z" fill="#FF413B" fill-opacity="0.3" stroke="#171A1C" stroke-width="2" stroke-miterlimit="10"/>
<path d="M47.2578 6.93359V23.6871H63.8633" stroke="#171A1C" stroke-width="2" stroke-miterlimit="10"/>
<path d="M15.2848 40.833V37.2717C13.4015 37.2655 11.5571 36.7298 9.95801 35.7245L10.7914 33.3718C12.2837 34.3497 14.0226 34.874 15.8012 34.8823C18.2743 34.8823 19.9413 33.4358 19.9413 31.4309C19.9413 29.426 18.5914 28.2999 16.0096 27.2471C12.4583 25.8372 10.266 24.226 10.266 21.1591C10.266 18.2478 12.3224 16.0232 15.5203 15.5013V11.9492H17.6855V15.3548C19.2749 15.3702 20.8341 15.7956 22.2152 16.5907L21.3092 18.9069C19.9828 18.1127 18.4663 17.7011 16.9245 17.7168C14.2068 17.7168 13.2374 19.3373 13.2374 20.738C13.2374 22.5689 14.5239 23.4844 17.5496 24.7478C21.1733 26.2309 22.9852 28.0619 22.9852 31.1562C22.9852 33.9027 21.0646 36.5301 17.4862 37.1344V40.7963L15.2848 40.833Z" fill="#171A1C"/>
<path d="M9.94141 49.0625H55.5548" stroke="#171A1C" stroke-width="2" stroke-miterlimit="10" stroke-linecap="round"/>
<path d="M9.94141 57.2969H55.5548" stroke="#171A1C" stroke-width="2" stroke-miterlimit="10" stroke-linecap="round"/>
<path d="M30.9766 31.6641H55.5543" stroke="#171A1C" stroke-width="2" stroke-miterlimit="10" stroke-linecap="round"/>
<path d="M30.9766 22.1289H42.7898" stroke="#171A1C" stroke-width="2" stroke-miterlimit="10" stroke-linecap="round"/>
<path d="M30.9766 39.8984H55.5543" stroke="#171A1C" stroke-width="2" stroke-miterlimit="10" stroke-linecap="round"/>
<path d="M9.94141 65.5352H55.5548" stroke="#171A1C" stroke-width="2" stroke-miterlimit="10" stroke-linecap="round"/>
</svg>
