<svg width="118" height="82" viewBox="0 0 118 82" fill="none" xmlns="http://www.w3.org/2000/svg">
<path d="M29.4668 48.6977V66.5238C29.4668 67.0166 29.6626 67.4892 30.011 67.8376C30.3595 68.186 30.8321 68.3818 31.3248 68.3818H115.141C115.634 68.3818 116.106 68.186 116.455 67.8376C116.804 67.4892 116.999 67.0166 116.999 66.5238V49.1964C117.001 48.8538 116.914 48.5166 116.745 48.2185L103.406 25.5325C103.244 25.2534 103.011 25.0217 102.732 24.8604C102.452 24.6991 102.135 24.614 101.812 24.6133H29.4473L29.4668 48.6977Z" fill="#FF413B" stroke="#171A1C" stroke-width="2" stroke-miterlimit="10"/>
<path d="M77.6192 1H22.5337C20.7352 1 19.2772 2.45786 19.2772 4.25623V50.7627C19.2772 52.561 20.7352 54.0189 22.5337 54.0189H77.6192C79.4176 54.0189 80.8756 52.561 80.8756 50.7627V4.25623C80.8756 2.45786 79.4176 1 77.6192 1Z" fill="#FF413B" fill-opacity="0.3" stroke="#171A1C" stroke-width="2" stroke-miterlimit="10"/>
<path d="M95.7692 80.6445C101.505 80.6445 106.155 75.995 106.155 70.2597C106.155 64.5244 101.505 59.875 95.7692 59.875C90.0334 59.875 85.3838 64.5244 85.3838 70.2597C85.3838 75.995 90.0334 80.6445 95.7692 80.6445Z" fill="#FF413B" stroke="#171A1C" stroke-width="2" stroke-miterlimit="10"/>
<path d="M95.7684 73.7357C97.6861 73.7357 99.24 72.1815 99.24 70.2643C99.24 68.3472 97.6861 66.793 95.7684 66.793C93.8512 66.793 92.2969 68.3472 92.2969 70.2643C92.2969 72.1815 93.8512 73.7357 95.7684 73.7357Z" fill="#FF413B" fill-opacity="0.3" stroke="#171A1C" stroke-width="2" stroke-miterlimit="10"/>
<path d="M87.1533 50.3438H88.6397" stroke="#171A1C" stroke-width="2" stroke-miterlimit="10" stroke-linecap="round"/>
<path d="M87.6709 32.5188V43.8716C87.6859 44.1207 87.7955 44.3546 87.9773 44.5255C88.1591 44.6963 88.3993 44.7913 88.6488 44.7908H105.928C106.088 44.7756 106.241 44.7212 106.375 44.6326C106.509 44.544 106.619 44.4239 106.695 44.2828C106.771 44.1418 106.811 43.9841 106.812 43.8237C106.814 43.6633 106.775 43.5052 106.701 43.3631L99.2787 32.0103C99.1955 31.8807 99.0821 31.7741 98.9462 31.7006C98.8112 31.627 98.6596 31.589 98.5061 31.5899H88.5999C88.3574 31.6018 88.1279 31.7034 87.9562 31.8751C87.7844 32.0469 87.6827 32.2763 87.6709 32.5188Z" fill="#FF413B" fill-opacity="0.3" stroke="#171A1C" stroke-width="2" stroke-miterlimit="10" stroke-linecap="round"/>
<path d="M93.6865 32.5156V44.7876" stroke="#171A1C" stroke-width="2" stroke-miterlimit="10" stroke-linecap="round"/>
<path d="M27.7067 56.3477H1.80188C1.35902 56.3477 1 56.7066 1 57.1495V80.1974C1 80.6402 1.35902 80.9992 1.80188 80.9992H27.7067C28.1495 80.9992 28.5085 80.6402 28.5085 80.1974V57.1495C28.5085 56.7066 28.1495 56.3477 27.7067 56.3477Z" fill="#FF413B" stroke="#171A1C" stroke-width="2" stroke-miterlimit="10"/>
<path d="M17.8602 56.3477H11.6603C11.2174 56.3477 10.8584 56.7066 10.8584 57.1495V63.1828C10.8584 63.6257 11.2174 63.9847 11.6603 63.9847H17.8602C18.3031 63.9847 18.6621 63.6257 18.6621 63.1828V57.1495C18.6621 56.7066 18.3031 56.3477 17.8602 56.3477Z" fill="#FF413B" fill-opacity="0.3" stroke="#171A1C" stroke-width="2" stroke-miterlimit="10" stroke-linecap="round"/>
<path d="M55.2145 56.3477H29.3097C28.8668 56.3477 28.5078 56.7066 28.5078 57.1495V80.1974C28.5078 80.6402 28.8668 80.9992 29.3097 80.9992H55.2145C55.6574 80.9992 56.0163 80.6402 56.0163 80.1974V57.1495C56.0163 56.7066 55.6574 56.3477 55.2145 56.3477Z" fill="#FF413B" stroke="#171A1C" stroke-width="2" stroke-miterlimit="10"/>
<path d="M45.369 56.3477H39.1691C38.7262 56.3477 38.3672 56.7066 38.3672 57.1495V63.1828C38.3672 63.6257 38.7262 63.9847 39.1691 63.9847H45.369C45.8119 63.9847 46.1709 63.6257 46.1709 63.1828V57.1495C46.1709 56.7066 45.8119 56.3477 45.369 56.3477Z" fill="#FF413B" fill-opacity="0.3" stroke="#171A1C" stroke-width="2" stroke-miterlimit="10" stroke-linecap="round"/>
<path d="M41.5631 31.5898H15.6583C15.2154 31.5898 14.8564 31.9489 14.8564 32.3917V55.4396C14.8564 55.8824 15.2154 56.2414 15.6583 56.2414H41.5631C42.006 56.2414 42.365 55.8824 42.365 55.4396V32.3917C42.365 31.9489 42.006 31.5898 41.5631 31.5898Z" fill="#FF413B" stroke="#171A1C" stroke-width="2" stroke-miterlimit="10"/>
<path d="M31.7167 31.5898H25.5167C25.0738 31.5898 24.7148 31.9489 24.7148 32.3917V38.425C24.7148 38.8679 25.0738 39.2268 25.5167 39.2268H31.7167C32.1596 39.2268 32.5185 38.8679 32.5185 38.425V32.3917C32.5185 31.9489 32.1596 31.5898 31.7167 31.5898Z" fill="#FF413B" fill-opacity="0.3" stroke="#171A1C" stroke-width="2" stroke-miterlimit="10" stroke-linecap="round"/>
</svg>
