<svg width="70" height="69" viewBox="0 0 70 69" fill="none" xmlns="http://www.w3.org/2000/svg">
<g clip-path="url(#clip0_1_27968)">
<path d="M59.2308 7.84565V1.73552C59.2308 1.63679 59.192 1.54212 59.123 1.47231C59.054 1.4025 58.9604 1.36328 58.8628 1.36328H8.07693C7.97935 1.36328 7.88575 1.4025 7.81675 1.47231C7.74774 1.54212 7.70898 1.63679 7.70898 1.73552V7.84565C7.70898 7.94437 7.74774 8.03905 7.81675 8.10886C7.88575 8.17867 7.97935 8.21789 8.07693 8.21789H15.768C15.8679 8.21789 15.9638 8.25806 16.0345 8.32958C16.1051 8.40108 16.1449 8.49807 16.1449 8.5992V27.4199C16.1425 27.5194 16.1018 27.6141 16.0314 27.6836C15.9609 27.7532 15.8664 27.7921 15.768 27.7921H8.07693C7.97935 27.7921 7.88575 27.8313 7.81675 27.9011C7.74774 27.971 7.70898 28.0656 7.70898 28.1643V34.2745C7.70898 34.3732 7.74774 34.4678 7.81675 34.5377C7.88575 34.6075 7.97935 34.6467 8.07693 34.6467H58.8628C58.9604 34.6467 59.054 34.6075 59.123 34.5377C59.192 34.4678 59.2308 34.3732 59.2308 34.2745V28.1462C59.2308 28.0475 59.192 27.9528 59.123 27.883C59.054 27.8132 58.9604 27.7739 58.8628 27.7739H51.1539C51.0563 27.7739 50.9627 27.7347 50.8937 27.6649C50.8247 27.5951 50.7859 27.5004 50.7859 27.4017V8.5992C50.7847 8.54956 50.7934 8.50018 50.8113 8.45397C50.8293 8.40775 50.8562 8.36564 50.8905 8.3301C50.9247 8.29457 50.9657 8.26633 51.011 8.24707C51.0562 8.22779 51.1048 8.21787 51.1539 8.21789H58.8449C58.8947 8.22035 58.9445 8.21254 58.9912 8.19493C59.0379 8.17734 59.0806 8.15031 59.1167 8.11549C59.1528 8.08069 59.1815 8.03881 59.2012 7.99242C59.2207 7.94604 59.2309 7.8961 59.2308 7.84565Z" fill="#CBCBCB" stroke="#171A1C" stroke-width="3" stroke-miterlimit="10"/>
<path d="M63.9695 7.84565V1.73552C63.9695 1.63679 63.9307 1.54212 63.8617 1.47231C63.7927 1.4025 63.6991 1.36328 63.6016 1.36328H40.699C40.6015 1.36328 40.5079 1.4025 40.4388 1.47231C40.3698 1.54212 40.3311 1.63679 40.3311 1.73552V7.84565C40.3311 7.94437 40.3698 8.03905 40.4388 8.10886C40.5079 8.17867 40.6015 8.21789 40.699 8.21789H48.39C48.4391 8.21787 48.4877 8.22779 48.533 8.24707C48.5782 8.26633 48.6191 8.29457 48.6534 8.3301C48.6877 8.36564 48.7146 8.40775 48.7326 8.45397C48.7505 8.50018 48.7591 8.54956 48.758 8.5992V27.4199C48.758 27.5185 48.7192 27.6132 48.6502 27.6831C48.5812 27.7529 48.4876 27.7921 48.39 27.7921H40.699C40.6015 27.7921 40.5079 27.8313 40.4388 27.9011C40.3698 27.971 40.3311 28.0656 40.3311 28.1643V34.2745C40.3311 34.3732 40.3698 34.4678 40.4388 34.5377C40.5079 34.6075 40.6015 34.6467 40.699 34.6467H63.6016C63.6991 34.6467 63.7927 34.6075 63.8617 34.5377C63.9307 34.4678 63.9695 34.3732 63.9695 34.2745V28.1462C63.9695 28.0475 63.9307 27.9528 63.8617 27.883C63.7927 27.8132 63.6991 27.7739 63.6016 27.7739H55.9105C55.813 27.7739 55.7194 27.7347 55.6504 27.6649C55.5814 27.5951 55.5426 27.5004 55.5426 27.4017V8.5992C55.5414 8.54956 55.55 8.50018 55.568 8.45397C55.5859 8.40775 55.6129 8.36564 55.6471 8.3301C55.6814 8.29457 55.7224 8.26633 55.7677 8.24707C55.8129 8.22779 55.8615 8.21787 55.9105 8.21789H63.6016C63.6991 8.21789 63.7927 8.17867 63.8617 8.10886C63.9307 8.03905 63.9695 7.94437 63.9695 7.84565Z" fill="#AAAAAA" stroke="#171A1C" stroke-width="3" stroke-miterlimit="10"/>
<path d="M67.3072 40.5176V34.4075C67.3072 34.3578 67.2975 34.3087 67.2784 34.263C67.2593 34.2172 67.2314 34.1757 67.1963 34.141C67.1612 34.1064 67.1196 34.0791 67.0739 34.061C67.0282 34.0428 66.9794 34.0341 66.9303 34.0353H1.71365C1.61606 34.0353 1.52248 34.0745 1.45348 34.1443C1.38447 34.2141 1.3457 34.3088 1.3457 34.4075V40.5176C1.3457 40.6164 1.38447 40.711 1.45348 40.7808C1.52248 40.8506 1.61606 40.8899 1.71365 40.8899H9.40468C9.45422 40.8899 9.50322 40.8998 9.5489 40.9189C9.59466 40.9381 9.63622 40.9661 9.67122 41.0015C9.70622 41.0369 9.73395 41.079 9.75288 41.1253C9.77182 41.1715 9.7816 41.2212 9.7816 41.2712V60.0918C9.77927 60.1914 9.73852 60.286 9.66808 60.3556C9.59763 60.4252 9.50313 60.4641 9.40468 60.4641H1.71365C1.6176 60.4641 1.52534 60.502 1.4566 60.5698C1.38785 60.6378 1.34805 60.7301 1.3457 60.8272V66.9374C1.3457 67.0361 1.38447 67.1307 1.45348 67.2006C1.52248 67.2704 1.61606 67.3096 1.71365 67.3096H66.9662C67.0153 67.3108 67.0641 67.3021 67.1098 67.2839C67.1555 67.2658 67.1971 67.2385 67.2322 67.2038C67.2673 67.1692 67.2952 67.1278 67.3143 67.082C67.3334 67.0361 67.3431 66.987 67.3431 66.9374V60.8272C67.3431 60.7776 67.3334 60.7285 67.3143 60.6827C67.2952 60.6369 67.2673 60.5954 67.2322 60.5608C67.1971 60.5261 67.1555 60.4988 67.1098 60.4807C67.0641 60.4625 67.0153 60.4538 66.9662 60.455H59.2752C59.1776 60.455 59.084 60.4158 59.015 60.346C58.946 60.2761 58.9072 60.1814 58.9072 60.0828V41.2712C58.9061 41.2215 58.9147 41.1721 58.9326 41.1259C58.9506 41.0797 58.9775 41.0376 59.0118 41.0021C59.0461 40.9666 59.087 40.9383 59.1323 40.919C59.1776 40.8998 59.2261 40.8899 59.2752 40.8899H66.9662C67.0591 40.883 67.1459 40.8407 67.2092 40.7717C67.2724 40.7026 67.3075 40.6118 67.3072 40.5176Z" fill="#CBCBCB" stroke="#171A1C" stroke-width="3" stroke-miterlimit="10"/>
<path d="M68.2676 40.5176V34.4075C68.2676 34.3578 68.2578 34.3087 68.2387 34.263C68.2196 34.2172 68.1917 34.1757 68.1566 34.141C68.1215 34.1064 68.0799 34.0791 68.0342 34.061C67.9885 34.0428 67.9397 34.0341 67.8906 34.0353H44.9881C44.8905 34.0353 44.7969 34.0745 44.7279 34.1443C44.6589 34.2141 44.6201 34.3088 44.6201 34.4075V40.5176C44.6201 40.6164 44.6589 40.711 44.7279 40.7808C44.7969 40.8506 44.8905 40.8899 44.9881 40.8899H52.6791C52.7286 40.8899 52.7776 40.8998 52.8233 40.9189C52.8691 40.9381 52.9106 40.9661 52.9456 41.0015C52.9806 41.0369 53.0084 41.079 53.0273 41.1253C53.0462 41.1715 53.056 41.2212 53.056 41.2712V60.0918C53.0537 60.1914 53.0129 60.286 52.9425 60.3556C52.872 60.4252 52.7775 60.4641 52.6791 60.4641H44.9881C44.8905 60.4641 44.7969 60.5033 44.7279 60.5731C44.6589 60.6429 44.6201 60.7376 44.6201 60.8363V66.9464C44.6201 67.0451 44.6589 67.1398 44.7279 67.2096C44.7969 67.2795 44.8905 67.3187 44.9881 67.3187H67.8906C67.9397 67.3199 67.9885 67.3111 68.0342 67.293C68.0799 67.2748 68.1215 67.2476 68.1566 67.2129C68.1917 67.1782 68.2196 67.1368 68.2387 67.0911C68.2578 67.0452 68.2676 66.9961 68.2676 66.9464V60.8272C68.2676 60.7776 68.2578 60.7285 68.2387 60.6827C68.2196 60.6369 68.1917 60.5954 68.1566 60.5608C68.1215 60.5261 68.0799 60.4988 68.0342 60.4807C67.9885 60.4625 67.9397 60.4538 67.8906 60.455H60.1996C60.1028 60.4527 60.0104 60.4128 59.9419 60.3434C59.8735 60.2741 59.8339 60.1808 59.8317 60.0828V41.2712C59.8317 41.1716 59.8701 41.076 59.9389 41.0047C60.0076 40.9334 60.1012 40.8922 60.1996 40.8899H67.8906C67.9397 40.891 67.9885 40.8823 68.0342 40.8642C68.0799 40.846 68.1215 40.8188 68.1566 40.7841C68.1917 40.7494 68.2196 40.708 68.2387 40.6623C68.2578 40.6164 68.2676 40.5673 68.2676 40.5176Z" fill="#AAAAAA" stroke="#171A1C" stroke-width="3" stroke-miterlimit="10"/>
<path d="M15.5527 27.7266H48.7579" stroke="#171A1C" stroke-width="3" stroke-miterlimit="10"/>
<path d="M12.959 8.1875H46.2539" stroke="#171A1C" stroke-width="3" stroke-miterlimit="10"/>
<path d="M2.09106 60.4568H52.7872" stroke="#171A1C" stroke-width="3" stroke-miterlimit="10"/>
<path d="M1.3457 40.8633H53.056" stroke="#171A1C" stroke-width="3" stroke-miterlimit="10"/>
</g>
<defs>
<clipPath id="clip0_1_27968">
<rect width="70" height="69" fill="white"/>
</clipPath>
</defs>
</svg>
