<svg width="72" height="72" viewBox="0 0 72 72" fill="none" xmlns="http://www.w3.org/2000/svg">
<g clip-path="url(#clip0_1_27989)">
<path d="M61.4979 51.9958C60.4836 51.997 59.4766 52.1676 58.5186 52.5007L34.0883 28.0703L28.8662 33.7807L52.9655 57.8717C52.268 59.694 52.1717 61.6917 52.6906 63.5728C53.2096 65.4537 54.3166 67.1195 55.8498 68.3263C57.383 69.5333 59.2621 70.2181 61.2124 70.2808C63.1626 70.3435 65.0818 69.7807 66.6894 68.6747C68.297 67.5687 69.5086 65.9775 70.1473 64.1337C70.7859 62.2899 70.818 60.2901 70.239 58.4268C69.6599 56.5634 68.5 54.9342 66.9288 53.7771C65.3576 52.62 63.4575 51.9959 61.5062 51.9958H61.4979ZM61.4979 63.8965C60.9526 63.8982 60.4189 63.738 59.9646 63.4361C59.5103 63.1343 59.1558 62.7045 58.946 62.201C58.7361 61.6976 58.6803 61.1432 58.7858 60.6081C58.8911 60.073 59.153 59.5812 59.538 59.1949C59.9231 58.8087 60.4141 58.5454 60.949 58.4384C61.4838 58.3314 62.0383 58.3855 62.5423 58.5938C63.0464 58.8021 63.4773 59.1554 63.7805 59.6087C64.0836 60.0621 64.2455 60.5953 64.2455 61.1407C64.2455 61.8702 63.9563 62.5699 63.4413 63.0865C62.9263 63.6031 62.2274 63.8944 61.4979 63.8965Z" fill="white" stroke="#171A1C" stroke-width="3" stroke-miterlimit="10"/>
<path d="M41.123 26.0766L41.9506 26.6807C42.3485 27.0504 42.8741 27.2517 43.4171 27.2424C43.9602 27.2331 44.4786 27.0141 44.8637 26.6311L47.3464 24.1483C47.7401 23.7541 47.9613 23.2198 47.9613 22.6628C47.9613 22.1056 47.7401 21.5714 47.3464 21.1773L27.9809 1.8531C27.5867 1.45941 27.0525 1.23828 26.4954 1.23828C25.9384 1.23828 25.4041 1.45941 25.0099 1.8531L1.83747 25.0255C1.44379 25.4196 1.22266 25.9539 1.22266 26.511C1.22266 27.0681 1.44379 27.6024 1.83747 27.9966L21.3437 47.4614C21.5382 47.656 21.7691 47.8105 22.0232 47.9158C22.2774 48.0213 22.5499 48.0755 22.8251 48.0755C23.1002 48.0755 23.3727 48.0213 23.6269 47.9158C23.8811 47.8105 24.112 47.656 24.3064 47.4614L27.4926 44.2752C27.6873 44.0807 27.8418 43.8498 27.9472 43.5956C28.0525 43.3414 28.1067 43.069 28.1067 42.7938C28.1067 42.5186 28.0525 42.2462 27.9472 41.992C27.8418 41.7378 27.6873 41.5068 27.4926 41.3124L26.5244 40.3359C26.3297 40.1414 26.1752 39.9105 26.0699 39.6563C25.9645 39.4021 25.9103 39.1297 25.9103 38.8545C25.9103 38.5793 25.9645 38.3069 26.0699 38.0526C26.1752 37.7985 26.3297 37.5675 26.5244 37.3731L37.8126 26.0766C38.2528 25.6399 38.8478 25.3949 39.4678 25.3949C40.0878 25.3949 40.6828 25.6399 41.123 26.0766Z" fill="#D1D1D1" stroke="#171A1C" stroke-width="3" stroke-miterlimit="10"/>
<path d="M4.7998 30.5969L30.8108 4.58594" stroke="#171A1C" stroke-width="3" stroke-miterlimit="10"/>
<path d="M24.7784 27.3341C26.5609 27.3341 28.006 25.889 28.006 24.1065C28.006 22.324 26.5609 20.8789 24.7784 20.8789C22.9958 20.8789 21.5508 22.324 21.5508 24.1065C21.5508 25.889 22.9958 27.3341 24.7784 27.3341Z" fill="white" stroke="#171A1C" stroke-width="3" stroke-miterlimit="10"/>
</g>
<defs>
<clipPath id="clip0_1_27989">
<rect width="72" height="72" fill="white"/>
</clipPath>
</defs>
</svg>
