<svg width="93" height="58" viewBox="0 0 93 58" fill="none" xmlns="http://www.w3.org/2000/svg">
<path d="M1.00318 14.2666C0.994011 14.1752 1.00472 14.0828 1.03459 13.996C1.06446 13.909 1.11277 13.8297 1.17619 13.7632C1.23963 13.6969 1.31668 13.6449 1.40205 13.6111C1.48744 13.5773 1.57912 13.5623 1.67082 13.5674C3.93452 13.6822 10.9447 14.3605 14.721 18.128C19.2589 22.6783 17.5689 30.516 17.5689 30.516C17.5689 30.516 10.0684 30.1299 5.6975 25.7883C2.19241 22.2504 1.24311 16.333 1.00318 14.2666Z" fill="#3BC8FF" stroke="#171A1C" stroke-width="2" stroke-miterlimit="10"/>
<path d="M1.00318 46.5658C0.994011 46.6573 1.00472 46.7496 1.03459 46.8364C1.06446 46.9234 1.11277 47.0027 1.17619 47.0692C1.23963 47.1356 1.31668 47.1875 1.40205 47.2213C1.48744 47.2551 1.57912 47.2701 1.67082 47.2651C3.93452 47.1503 10.9447 46.4719 14.721 42.7044C19.2589 38.1541 17.5689 30.3164 17.5689 30.3164C17.5689 30.3164 10.0684 30.7443 5.6975 35.0441C2.19241 38.582 1.24311 44.4994 1.00318 46.5658Z" fill="#3BC8FF" stroke="#171A1C" stroke-width="2" stroke-miterlimit="10"/>
<path d="M38.0986 15.0908V4.53961C38.1067 3.9683 38.2508 3.40717 38.5192 2.90284C38.7877 2.39851 39.1726 1.96556 39.6418 1.63997C40.1111 1.31437 40.6514 1.10554 41.2175 1.03083C41.7838 0.956113 42.3596 1.01768 42.8973 1.21041C48.8747 3.29768 58.545 7.47222 60.2454 12.4608C62.7594 19.8184 46.9552 19.067 46.9552 19.067L38.0986 15.0908Z" fill="#3BC8FF" stroke="#171A1C" stroke-width="2" stroke-miterlimit="10"/>
<path d="M35.0215 41.4102V53.2032C35.0215 53.2032 35.1049 62.4707 49.8868 50.1767C64.6687 37.8827 54.0595 46.1065 54.0595 46.1065L35.0215 41.4102Z" fill="#3BC8FF" stroke="#171A1C" stroke-width="2" stroke-miterlimit="10"/>
<path d="M17.5693 30.5181C17.5693 30.5181 33.4987 9.875 53.6843 9.875C73.8698 9.875 92.0003 26.0305 92.0003 29.8398C92.0003 33.649 77.3123 50.8064 56.3548 50.8064C35.3973 50.8064 17.5693 30.5181 17.5693 30.5181Z" fill="#3BC8FF" stroke="#171A1C" stroke-width="2" stroke-miterlimit="10"/>
<path d="M62.0293 30.5181C62.0293 22.8787 65.6596 17.1805 70.0618 13.1416C64.8516 11.0485 59.2982 9.94085 53.6839 9.875C33.5505 9.875 17.6211 30.5599 17.6211 30.5599C17.6211 30.5599 35.3969 50.8064 56.3544 50.8064C61.1466 50.7868 65.896 49.903 70.3748 48.1973C67.7628 46.0519 65.6593 43.3533 64.216 40.2961C62.7729 37.2387 62.026 33.8992 62.0293 30.5181Z" fill="#D6EDFF" stroke="#171A1C" stroke-width="2" stroke-miterlimit="10"/>
<path d="M78.209 29.3359V30.755" stroke="#171A1C" stroke-width="2" stroke-miterlimit="10" stroke-linecap="round"/>
<path d="M53.4651 22.1133C53.4651 22.1133 50.8671 29.4187 52.2965 34.8248C53.0055 37.8434 54.4378 40.6443 56.4701 42.986" stroke="#171A1C" stroke-width="2" stroke-miterlimit="10" stroke-linecap="round"/>
</svg>
