<svg width="74" height="69" viewBox="0 0 74 69" fill="none" xmlns="http://www.w3.org/2000/svg">
<g clip-path="url(#clip0_1_27959)">
<path d="M38.8053 66.9108C39.4975 66.9119 40.1639 66.6462 40.6674 66.1683C41.171 65.6905 41.4734 65.0367 41.5127 64.3415C41.7712 58.4921 42.9092 52.7159 44.8878 47.2095C48.4163 38.1305 49.7429 36.1786 49.7429 36.1786C49.7429 36.1786 58.7673 36.46 61.4746 40.373C64.1819 44.2861 63.6044 48.1174 63.6044 50.5687C63.6044 53.6192 60.0488 57.6866 55.7532 54.4999C55.6769 54.4438 55.5904 54.4035 55.4986 54.3814C55.4068 54.3592 55.3115 54.3557 55.2184 54.3709C55.1251 54.3861 55.0359 54.4198 54.9558 54.47C54.8756 54.5202 54.8061 54.5858 54.7514 54.6633C53.0819 56.9512 52.2788 58.2495 51.4756 59.3026C51.3386 59.499 51.2845 59.7421 51.3251 59.9786C51.3656 60.2151 51.4976 60.4257 51.6922 60.5646C54.0239 62.3618 56.8768 63.3408 59.8141 63.3518C66.6366 63.3518 72.0422 57.4324 72.0422 45.5389V22.1425C72.0422 22.1425 71.0856 13.7354 63.9202 9.08698C55.9517 3.88472 50.2663 5.62788 50.2663 5.62788C50.2663 5.62788 48.1546 1.26998 39.4371 1.36077C30.7195 1.45156 28.2017 6.59933 28.2017 6.59933C28.2017 6.59933 17.3724 3.31275 6.83193 15.7509C-3.70856 28.1891 3.48388 43.1058 7.27412 50.2963C10.0807 55.6075 10.4778 62.0989 10.4958 65.1676C10.4958 65.3973 10.541 65.6247 10.6286 65.8368C10.7162 66.0488 10.8446 66.2414 11.0065 66.4035C11.1683 66.5654 11.3605 66.6936 11.5717 66.7807C11.783 66.8678 12.0092 66.912 12.2375 66.9108H17.4446C17.9089 66.9108 18.3543 66.7252 18.6826 66.3949C19.0109 66.0645 19.1953 65.6166 19.1953 65.1495V57.1146C19.1953 56.7899 19.2592 56.4686 19.3832 56.1689C19.5072 55.8692 19.689 55.5971 19.918 55.3684C20.1471 55.1397 20.4188 54.9588 20.7176 54.8362C21.0164 54.7137 21.3363 54.6518 21.659 54.6542H29.3839C29.7058 54.653 30.0248 54.7158 30.3225 54.8389C30.6203 54.962 30.891 55.143 31.119 55.3716C31.3471 55.6002 31.528 55.8718 31.6515 56.1709C31.775 56.47 31.8385 56.7908 31.8385 57.1146V64.1871C31.8385 64.9094 32.1238 65.6022 32.6315 66.113C33.1392 66.6238 33.8278 66.9108 34.5458 66.9108H38.8053Z" fill="#E3E3E3" stroke="#171A1C" stroke-width="3" stroke-miterlimit="10" stroke-linecap="round"/>
<path d="M20.0615 55.2374C20.0615 55.2374 28.5535 52.5137 28.4903 45.3867L20.0615 55.2374Z" fill="#E3E3E3"/>
<path d="M20.0615 55.2374C20.0615 55.2374 28.5535 52.5137 28.4903 45.3867" stroke="#171A1C" stroke-width="3" stroke-miterlimit="10" stroke-linecap="round"/>
<path d="M28.2014 6.60156C28.2014 6.60156 24.2758 13.0294 25.8822 19.9748C27.7953 28.2911 30.3222 29.4714 35.8992 34.5647C36.2236 34.9546 36.6807 35.2087 37.1813 35.2776C37.682 35.3464 38.1902 35.2249 38.6066 34.9369C42.9744 31.6958 47.1797 25.9125 45.9885 18.9489" fill="#FF413B"/>
<path d="M28.2014 6.60156C28.2014 6.60156 24.2758 13.0294 25.8822 19.9748C27.7953 28.2911 30.3222 29.4714 35.8992 34.5647C36.2236 34.9546 36.6807 35.2087 37.1813 35.2776C37.682 35.3464 38.1902 35.2249 38.6066 34.9369C42.9744 31.6958 47.1797 25.9125 45.9885 18.9489" fill="#E3E3E3"/>
<path d="M28.2014 6.60156C28.2014 6.60156 24.2758 13.0294 25.8822 19.9748C27.7953 28.2911 30.3222 29.4714 35.8992 34.5647C36.2236 34.9546 36.6807 35.2087 37.1813 35.2776C37.682 35.3464 38.1902 35.2249 38.6066 34.9369C42.9744 31.6958 47.1797 25.9125 45.9885 18.9489" stroke="#171A1C" stroke-width="3" stroke-miterlimit="10" stroke-linecap="round"/>
<path d="M59.9043 18.8945V19.2214" stroke="#171A1C" stroke-width="3" stroke-miterlimit="10" stroke-linecap="round"/>
</g>
<defs>
<clipPath id="clip0_1_27959">
<rect width="74" height="69" fill="white"/>
</clipPath>
</defs>
</svg>
