<svg width="85" height="76" viewBox="0 0 85 76" fill="none" xmlns="http://www.w3.org/2000/svg">
<g clip-path="url(#clip0_1_27996)">
<path d="M17.9421 69.0586V70.7204C17.9421 71.4837 18.2485 72.2157 18.794 72.7554C19.3394 73.2951 20.0792 73.5983 20.8506 73.5983H22.9909C23.7605 73.5957 24.4977 73.2913 25.0409 72.7519C25.5842 72.2124 25.8891 71.4819 25.8891 70.7204V69.0586H17.9421Z" fill="#0647A8" stroke="#171A1C" stroke-width="3" stroke-miterlimit="10"/>
<path d="M58.906 69.0586V70.7204C58.906 71.4837 59.2124 72.2157 59.7578 72.7554C60.3033 73.2951 61.0431 73.5983 61.8144 73.5983H63.9548C64.7244 73.5957 65.4616 73.2913 66.0047 72.7519C66.548 72.2124 66.853 71.4819 66.853 70.7204V69.0586H58.906Z" fill="#0647A8" stroke="#171A1C" stroke-width="3" stroke-miterlimit="10"/>
<path d="M61.917 1.51953H22.6429C17.038 1.51953 12.4941 6.01555 12.4941 11.5617V43.8161C12.4941 49.3621 17.038 53.8582 22.6429 53.8582H61.917C67.522 53.8582 72.0658 49.3621 72.0658 43.8161V11.5617C72.0658 6.01555 67.522 1.51953 61.917 1.51953Z" fill="#2465C6" stroke="#171A1C" stroke-width="3" stroke-miterlimit="10"/>
<path d="M16.9797 39.7737C16.9797 39.7737 26.3502 36.1055 42.2134 36.1055C58.0767 36.1055 67.9285 40.7871 67.9285 40.7871L70.458 51.9337L45.552 59.1993L14.8291 52.4607L16.9797 39.7737Z" fill="#4C8DEE" stroke="#171A1C" stroke-width="3" stroke-miterlimit="10"/>
<path d="M9.35982 44.495C10.0057 46.1749 10.2916 47.9692 10.1996 49.7644V65.9777C10.2049 66.793 10.5347 67.5735 11.1174 68.1501C11.7001 68.7267 12.4888 69.0529 13.3128 69.0582H72.096C72.9271 69.0582 73.7242 68.7315 74.3118 68.15C74.8995 67.5685 75.2297 66.7797 75.2297 65.9574V48.8422C75.2297 48.8422 74.9634 44.9004 76.3357 43.5729C78.0152 41.911 83.2689 38.567 83.2689 32.7505C83.2689 28.8492 78.9574 26.103 74.7279 26.103C73.077 26.1391 71.4873 26.7295 70.2201 27.7772C68.9529 28.8248 68.0833 30.2677 67.7538 31.8689C67.2827 34.2037 67.063 36.5815 67.0984 38.9622V48.2748C67.0984 49.2432 66.7102 50.1721 66.0192 50.8579C65.328 51.5436 64.3904 51.9302 63.4116 51.9329H21.7719C20.7914 51.9329 19.8511 51.5474 19.1577 50.8614C18.4643 50.1754 18.0749 49.2449 18.0749 48.2748V38.9116C18.0749 38.9116 19.6827 26.0625 9.26765 26.0625C-1.14741 26.0625 0.245359 38.6278 5.92909 41.0396C6.70539 41.3593 7.40898 41.8299 7.99826 42.4234C8.58754 43.0169 9.05052 43.7214 9.35982 44.495Z" fill="#2465C6" stroke="#171A1C" stroke-width="3" stroke-miterlimit="10"/>
<path d="M29.1455 14.6914V20.3762" stroke="#171A1C" stroke-width="3" stroke-miterlimit="10" stroke-linecap="round"/>
<path d="M32.0137 17.5391H26.2686" stroke="#171A1C" stroke-width="3" stroke-miterlimit="10" stroke-linecap="round"/>
<path d="M55.7725 14.6914V20.3762" stroke="#171A1C" stroke-width="3" stroke-miterlimit="10" stroke-linecap="round"/>
<path d="M58.6397 17.5391H52.8945" stroke="#171A1C" stroke-width="3" stroke-miterlimit="10" stroke-linecap="round"/>
</g>
<defs>
<clipPath id="clip0_1_27996">
<rect width="85" height="76" fill="white"/>
</clipPath>
</defs>
</svg>
