<svg width="81" height="64" viewBox="0 0 81 64" fill="none" xmlns="http://www.w3.org/2000/svg">
<g clip-path="url(#clip0_1_27950)">
<path d="M38.1668 52.2057L28.3235 42.2679C24.6794 38.5873 22.319 33.8105 21.598 28.6576C20.877 23.5046 21.8345 18.2546 24.3264 13.699C25.3829 11.7879 19.4047 8.1701 23.5075 3.50344C27.5047 -0.301004 31.8541 5.28121 33.8439 4.20566C42.8331 -0.692116 54.7454 0.747884 62.8454 8.00121L72.3629 17.779C79.8642 25.3523 80.7358 37.2812 76.0519 46.2768C74.3439 49.5568 81.4137 52.8901 76.5625 58.0457C71.5177 62.3034 69.7744 55.379 67.0891 56.5968C56.4798 61.2634 45.8882 60.0101 38.1668 52.2057Z" fill="#F6C68C" stroke="#171A1C" stroke-width="3" stroke-miterlimit="10"/>
<path d="M30.8942 61.8773C38.6007 61.8778 46.003 58.8411 51.5251 53.4138C57.0471 47.9865 60.2527 40.5973 60.4592 32.8195C60.4603 32.7149 60.4409 32.6111 60.402 32.5141C60.3632 32.417 60.3057 32.3288 60.2328 32.2544C60.1599 32.18 60.0731 32.121 59.9775 32.0806C59.8819 32.0403 59.7792 32.0195 59.6756 32.0195H2.10395C2.0003 32.0195 1.89768 32.0403 1.80203 32.0806C1.70638 32.121 1.6196 32.18 1.54673 32.2544C1.47385 32.3288 1.41631 32.417 1.37746 32.5141C1.33861 32.6111 1.31919 32.7149 1.32036 32.8195C1.52689 40.5988 4.73363 47.9893 10.2576 53.4169C15.7815 58.8444 23.1861 61.8802 30.8942 61.8773Z" fill="#F6C68C" stroke="#171A1C" stroke-width="3" stroke-miterlimit="10"/>
<path d="M30.8944 54.2222C43.3437 54.2222 53.4335 44.2756 53.4335 32H8.34644C8.34644 44.2756 18.4362 54.2222 30.8944 54.2222Z" fill="#FF413B" stroke="#171A1C" stroke-width="3" stroke-miterlimit="10"/>
<path d="M15.416 47.2018L31.255 32.0195" stroke="#171A1C" stroke-width="3" stroke-miterlimit="10"/>
<path d="M30.8947 54.2205L30.7891 31.3672" stroke="#171A1C" stroke-width="3" stroke-miterlimit="10"/>
<path d="M45.5187 49.2729L30.7891 32.0195" stroke="#171A1C" stroke-width="3" stroke-miterlimit="10"/>
</g>
<defs>
<clipPath id="clip0_1_27950">
<rect width="81" height="64" fill="white"/>
</clipPath>
</defs>
</svg>
