<svg width="61" height="72" viewBox="0 0 61 72" fill="none" xmlns="http://www.w3.org/2000/svg">
<g clip-path="url(#clip0_1_27979)">
<path d="M10.0607 13.2344V17.611C10.0597 18.5966 9.72117 19.5525 9.10093 20.3211L2.18759 28.953C1.56147 29.7284 1.22004 30.6929 1.21973 31.6874V55.4151C1.21973 57.5413 2.06892 59.5805 3.58048 61.084C5.09205 62.5875 7.14218 63.4321 9.27986 63.4321H35.2415C37.3778 63.43 39.4257 62.5844 40.9356 61.0811C42.4454 59.5779 43.2935 57.5399 43.2935 55.4151V32.7634C43.2839 31.7626 42.9309 30.795 42.2931 30.0209L35.2089 21.2515C34.4288 20.2892 34.0039 19.0899 34.0052 17.8537V13.2344H10.0607Z" fill="#FFDA70" stroke="#171A1C" stroke-width="3" stroke-miterlimit="10"/>
<path d="M34.1761 1.21484H9.66222C7.58246 1.21484 5.89648 2.89181 5.89648 4.96046V9.37754C5.89648 11.4462 7.58246 13.1232 9.66222 13.1232H34.1761C36.2559 13.1232 37.9418 11.4462 37.9418 9.37754V4.96046C37.9418 2.89181 36.2559 1.21484 34.1761 1.21484Z" fill="#38FF80" stroke="#171A1C" stroke-width="3" stroke-miterlimit="10"/>
<path d="M43.2935 32.9922H1.21973V54.3657H43.2935V32.9922Z" fill="#38FF80" stroke="#171A1C" stroke-width="3" stroke-miterlimit="10"/>
<path d="M21.9189 39.7695V47.6167" stroke="#171A1C" stroke-width="3" stroke-miterlimit="10" stroke-linecap="round"/>
<path d="M25.8639 43.6953H17.9746" stroke="#171A1C" stroke-width="3" stroke-miterlimit="10" stroke-linecap="round"/>
<path d="M56.9093 44.371L56.1789 43.6445C52.5134 39.9987 46.5707 39.9987 42.9052 43.6445L33.0938 53.4036C29.4284 57.0494 29.4284 62.9605 33.0938 66.6063L33.8242 67.3327C37.4896 70.9786 43.4324 70.9786 47.0978 67.3327L56.9093 57.5737C60.5746 53.9279 60.5746 48.0168 56.9093 44.371Z" fill="#38FF80" stroke="#171A1C" stroke-width="3" stroke-miterlimit="10"/>
<path d="M51.7527 62.7041L56.5432 57.9392C57.4634 57.0248 58.1935 55.9389 58.6915 54.7438C59.1896 53.5486 59.446 52.2675 59.446 50.9738C59.446 49.68 59.1896 48.3988 58.6915 47.2037C58.1935 46.0085 57.4634 44.9227 56.5432 44.0084C55.6239 43.093 54.5323 42.3669 53.3307 41.8715C52.1291 41.3761 50.8412 41.1211 49.5404 41.1211C48.2396 41.1211 46.9517 41.3761 45.7501 41.8715C44.5485 42.3669 43.4569 43.093 42.5376 44.0084L37.7471 48.7733L51.7527 62.7041Z" fill="#FFDA70" stroke="#171A1C" stroke-width="3" stroke-miterlimit="10" stroke-linecap="round"/>
</g>
<defs>
<clipPath id="clip0_1_27979">
<rect width="61" height="72" fill="white"/>
</clipPath>
</defs>
</svg>
