<svg width="118" height="24" viewBox="0 0 118 24" fill="none" xmlns="http://www.w3.org/2000/svg">
<path d="M5.03175 19.448H12.3918V23H0.55175V0.664H5.03175V19.448ZM25.6073 23.224C23.5166 23.224 21.5966 22.7333 19.8473 21.752C18.0979 20.7707 16.7113 19.416 15.6873 17.688C14.6633 15.9387 14.1513 13.9653 14.1513 11.768C14.1513 9.592 14.6633 7.64 15.6873 5.912C16.7113 4.16267 18.0979 2.79733 19.8473 1.816C21.5966 0.834666 23.5166 0.344 25.6073 0.344C27.7193 0.344 29.6393 0.834666 31.3673 1.816C33.1166 2.79733 34.4926 4.16267 35.4953 5.912C36.5193 7.64 37.0313 9.592 37.0313 11.768C37.0313 13.9653 36.5193 15.9387 35.4953 17.688C34.4926 19.416 33.1166 20.7707 31.3673 21.752C29.6179 22.7333 27.6979 23.224 25.6073 23.224ZM25.6073 19.224C26.9513 19.224 28.1353 18.9253 29.1593 18.328C30.1833 17.7093 30.9833 16.8347 31.5593 15.704C32.1353 14.5733 32.4233 13.2613 32.4233 11.768C32.4233 10.2747 32.1353 8.97333 31.5593 7.864C30.9833 6.73333 30.1833 5.86933 29.1593 5.272C28.1353 4.67467 26.9513 4.376 25.6073 4.376C24.2633 4.376 23.0686 4.67467 22.0233 5.272C20.9993 5.86933 20.1993 6.73333 19.6233 7.864C19.0473 8.97333 18.7593 10.2747 18.7593 11.768C18.7593 13.2613 19.0473 14.5733 19.6233 15.704C20.1993 16.8347 20.9993 17.7093 22.0233 18.328C23.0686 18.9253 24.2633 19.224 25.6073 19.224ZM55.9163 7.384C55.4043 6.44533 54.7003 5.73067 53.8043 5.24C52.9083 4.74933 51.8629 4.504 50.6683 4.504C49.3456 4.504 48.1723 4.80267 47.1483 5.4C46.1243 5.99733 45.3243 6.85067 44.7483 7.96C44.1723 9.06933 43.8843 10.3493 43.8843 11.8C43.8843 13.2933 44.1723 14.5947 44.7483 15.704C45.3456 16.8133 46.1669 17.6667 47.2123 18.264C48.2576 18.8613 49.4736 19.16 50.8603 19.16C52.5669 19.16 53.9643 18.712 55.0522 17.816C56.1403 16.8987 56.8549 15.6293 57.1963 14.008H49.5163V10.584H61.6123V14.488C61.3136 16.0453 60.6736 17.4853 59.6923 18.808C58.7109 20.1307 57.4416 21.1973 55.8843 22.008C54.3483 22.7973 52.6203 23.192 50.7003 23.192C48.5456 23.192 46.5936 22.712 44.8443 21.752C43.1163 20.7707 41.7509 19.416 40.7483 17.688C39.7669 15.96 39.2763 13.9973 39.2763 11.8C39.2763 9.60267 39.7669 7.64 40.7483 5.912C41.7509 4.16267 43.1163 2.808 44.8443 1.848C46.5936 0.866666 48.5349 0.375999 50.6683 0.375999C53.1856 0.375999 55.3723 0.994666 57.2283 2.232C59.0843 3.448 60.3643 5.16533 61.0683 7.384H55.9163ZM75.2948 23.224C73.2041 23.224 71.2841 22.7333 69.5348 21.752C67.7854 20.7707 66.3988 19.416 65.3748 17.688C64.3508 15.9387 63.8388 13.9653 63.8388 11.768C63.8388 9.592 64.3508 7.64 65.3748 5.912C66.3988 4.16267 67.7854 2.79733 69.5348 1.816C71.2841 0.834666 73.2041 0.344 75.2948 0.344C77.4068 0.344 79.3268 0.834666 81.0548 1.816C82.8041 2.79733 84.1801 4.16267 85.1828 5.912C86.2068 7.64 86.7188 9.592 86.7188 11.768C86.7188 13.9653 86.2068 15.9387 85.1828 17.688C84.1801 19.416 82.8041 20.7707 81.0548 21.752C79.3054 22.7333 77.3854 23.224 75.2948 23.224ZM75.2948 19.224C76.6388 19.224 77.8228 18.9253 78.8468 18.328C79.8708 17.7093 80.6708 16.8347 81.2468 15.704C81.8228 14.5733 82.1108 13.2613 82.1108 11.768C82.1108 10.2747 81.8228 8.97333 81.2468 7.864C80.6708 6.73333 79.8708 5.86933 78.8468 5.272C77.8228 4.67467 76.6388 4.376 75.2948 4.376C73.9508 4.376 72.7561 4.67467 71.7108 5.272C70.6868 5.86933 69.8868 6.73333 69.3108 7.864C68.7348 8.97333 68.4468 10.2747 68.4468 11.768C68.4468 13.2613 68.7348 14.5733 69.3108 15.704C69.8868 16.8347 70.6868 17.7093 71.7108 18.328C72.7561 18.9253 73.9508 19.224 75.2948 19.224Z" fill="#121212"/>
<path d="M103.748 18.744H94.8518L93.3798 23H88.6758L96.7078 0.631998H101.924L109.956 23H105.22L103.748 18.744ZM102.532 15.16L99.2998 5.816L96.0677 15.16H102.532ZM117.438 0.664V23H112.958V0.664H117.438Z" fill="#FF413B"/>
</svg>
