<svg width="24" height="24" viewBox="0 0 24 24" fill="none" xmlns="http://www.w3.org/2000/svg">
<path d="M15.2995 5.54816C14.5395 5.54803 13.8098 5.84628 13.2674 6.37873C12.7251 6.91117 12.4134 7.63526 12.3995 8.39516L12.3715 9.97016C12.3699 10.0547 12.3504 10.138 12.3143 10.2145C12.2782 10.291 12.2264 10.359 12.1622 10.414C12.098 10.4691 12.0228 10.5099 11.9417 10.5339C11.8606 10.5579 11.7754 10.5645 11.6915 10.5532L10.1305 10.3412C8.07653 10.0612 6.10853 9.11516 4.22053 7.54216C3.62253 10.8522 4.79053 13.1452 7.60353 14.9142L9.35053 16.0122C9.43354 16.0643 9.5025 16.136 9.55138 16.221C9.60026 16.306 9.62757 16.4017 9.63093 16.4996C9.63428 16.5976 9.61358 16.6949 9.57062 16.7831C9.52767 16.8712 9.46378 16.9474 9.38453 17.0052L7.79253 18.1682C8.73953 18.2272 9.63853 18.1852 10.3845 18.0372C15.1025 17.0952 18.2395 13.5452 18.2395 7.68916C18.2395 7.21116 17.2275 5.54816 15.2995 5.54816ZM10.3995 8.35816C10.417 7.39421 10.7184 6.45683 11.2661 5.66338C11.8138 4.86993 12.5833 4.25568 13.4784 3.89753C14.3736 3.53938 15.3544 3.45324 16.2983 3.64991C17.2421 3.84658 18.107 4.31731 18.7845 5.00316C19.4955 4.99816 20.1005 5.17816 21.4535 4.35816C21.1185 5.99816 20.9535 6.71016 20.2395 7.68916C20.2395 15.3312 15.5425 19.0472 10.7765 19.9982C7.50853 20.6502 2.75653 19.5792 1.39453 18.1572C2.08853 18.1032 4.90853 17.8002 6.53853 16.6072C5.15953 15.6982 -0.329469 12.4682 3.27753 3.78416C4.97053 5.76116 6.68753 7.10716 8.42753 7.82116C9.58553 8.29616 9.86953 8.28616 10.4005 8.35916L10.3995 8.35816Z" fill="black"/>
</svg>
