<svg width="22" height="19" viewBox="0 0 22 19" fill="none" xmlns="http://www.w3.org/2000/svg">
<path d="M20.6847 0.971103C20.4767 0.794785 20.2247 0.678142 19.9556 0.633572C19.6866 0.589002 19.4104 0.618171 19.1566 0.717978L1.85037 7.51485C1.54682 7.6305 1.2897 7.84273 1.11861 8.11885C0.947516 8.39497 0.871932 8.71968 0.903496 9.04298C0.931656 9.36615 1.06382 9.67148 1.28018 9.91319C1.49653 10.1549 1.78541 10.32 2.1035 10.3836L6.50037 11.2555V16.7492C6.50021 17.0464 6.58835 17.337 6.75359 17.584C6.91884 17.831 7.15374 18.0234 7.4285 18.1367C7.61033 18.2099 7.80436 18.2481 8.00037 18.2492C8.19738 18.2499 8.39255 18.2113 8.57445 18.1357C8.75636 18.06 8.92134 17.9488 9.05975 17.8086L11.4972 15.3805L15.1816 18.6242C15.4536 18.8641 15.8033 18.9973 16.166 18.9992C16.3255 19.0025 16.4843 18.9771 16.6347 18.9242C16.8821 18.846 17.1048 18.7044 17.2808 18.5137C17.4567 18.323 17.5798 18.0896 17.6379 17.8367L21.1629 2.44298C21.2245 2.17735 21.2125 1.89996 21.1283 1.64062C21.044 1.38128 20.8907 1.14981 20.6847 0.971103ZM7.07225 9.83985L2.4035 8.91173L15.491 3.76485L7.07225 9.83985ZM8.00037 16.7492V12.3055L10.3629 14.3867L8.00037 16.7492ZM16.1754 17.4992L8.45037 10.7024L19.5785 2.66798L16.1754 17.4992Z" fill="black"/>
</svg>
