<svg width="116" height="53" viewBox="0 0 116 53" fill="none" xmlns="http://www.w3.org/2000/svg">
<path fill-rule="evenodd" clip-rule="evenodd" d="M35.9569 27.4322C35.5411 29.4423 34.651 33.8626 34.651 33.8626L34.5851 34.1885H1.91602L7.0081 9.1147H43.338C46.116 9.1147 49.2439 9.78647 51.0796 12.1622C52.0574 13.4264 52.5077 14.9851 52.5077 16.6013C52.5062 17.2444 52.4397 17.8856 52.3092 18.5153C51.8119 20.96 50.4161 23.1226 48.5429 24.6532C46.1327 26.6215 43.1385 27.4322 40.115 27.4322H35.9569ZM103.539 18.4087C99.4167 27.7393 97.6114 31.8138 97.6083 31.8191L97.5006 32.0635H88.7217L88.707 31.653L88.2348 17.9282L84.994 33.1438L77.8031 23.7004L81.3552 5.98047H96.1174L96.1299 6.39419C96.1299 6.40568 96.2449 10.5209 96.4246 16.733L100.827 6.2333L100.933 5.98047H115.747L110.518 32.0635H100.804L100.908 31.5485C100.909 31.5443 101.593 28.1363 103.539 18.4087Z" fill="#FCAF17"/>
<path fill-rule="evenodd" clip-rule="evenodd" d="M70.7461 35.5411C68.2721 36.0123 65.7689 36.2985 63.2448 36.2985C60.1064 36.2985 56.6765 35.8075 53.8191 34.4911C49.8084 32.6461 47.5569 29.4764 47.256 25.1031L47.2383 24.8523L47.4619 24.7301C50.2555 23.2142 52.4265 20.6316 53.0962 17.5308C53.233 16.8966 53.3082 16.2489 53.3082 15.6001C53.3082 14.1259 52.8945 12.7187 52.0451 11.5026L51.8728 11.255L52.0681 11.0241C54.2485 8.46134 56.9972 6.48259 60.0959 5.12547C63.7672 3.51656 67.7664 2.84375 71.771 2.84375C73.9795 2.84375 76.1254 3.10494 78.2703 3.62731L78.6464 3.71925L78.567 4.09117L78.4991 4.4046C78.3888 4.87924 78.2662 5.35093 78.1314 5.81918C78.0655 6.0532 77.9893 6.28931 77.9255 6.52229L77.8357 6.89109L77.4544 6.81482C75.9813 6.51602 74.5949 6.22976 73.0832 6.22976C68.4675 6.22976 64.1569 7.84494 60.9422 11.1421C58.1726 13.9839 56.4947 17.8421 56.4435 21.7881C56.4028 24.8168 57.4569 27.858 59.7366 29.958C62.2021 32.2303 65.467 32.8279 68.7213 32.2063C68.9334 32.1655 69.1445 32.1248 69.3566 32.0809C70.2867 31.897 71.1872 31.5866 72.0332 31.1584L73.5637 24.519L80.9657 33.5289L69.4694 41.4993L70.7461 35.5411Z" fill="black"/>
<path fill-rule="evenodd" clip-rule="evenodd" d="M109.096 37.9317L115.661 7.00412H80.6866L80.8747 6.35533C80.9917 5.96146 81.2978 4.91358 81.5057 3.90541L81.8672 2.18889L80.1642 1.76577C77.9239 1.20546 75.6231 0.923348 73.3138 0.925797C65.6026 0.925797 59.5389 3.32139 55.2116 7.00412H6.61741L0.0511925 37.9317H70.3666C69.9383 39.9794 68.882 44.9816 68.882 44.9816L78.8771 37.9317H109.096ZM81.2434 33.5385L74.6229 25.3362L73.2324 31.4741C71.8136 32.2326 70.7845 32.4457 69.6395 32.6682C61.9209 34.1695 56.7745 28.5446 56.8633 21.6462C56.9678 13.6539 63.3836 5.3879 73.9313 5.3879C75.4984 5.3879 76.8001 5.66371 78.3903 5.99176C78.408 5.92385 78.7925 4.68165 79.0296 3.5293C76.9327 3.00332 74.7788 2.73873 72.617 2.74156C63.744 2.74156 57.2206 6.11922 53.1931 10.9376C54.0592 12.1975 54.5294 13.6978 54.5294 15.3422C54.5274 16.0324 54.4532 16.7204 54.3079 17.3951C53.6925 20.2943 51.7242 23.2029 48.4657 25.003C49.1374 34.9092 59.5034 36.0407 64.0794 36.0407C66.6829 36.0407 69.3271 35.7314 72.1113 35.1568L70.9172 40.8256L81.2434 33.5385ZM16.7013 22.7056C17.5172 22.7056 18.1305 22.9291 18.4742 23.3512C18.6727 23.5999 18.7751 23.9122 18.7751 24.2539C18.7751 24.3772 18.7626 24.5046 18.7343 24.6363C18.4732 25.8753 17.2801 26.7414 15.8373 26.7414H13.7321C13.8888 25.9944 14.4801 23.2133 14.5888 22.7056H16.7013ZM40.8202 14.5493C42.2996 14.5493 43.2775 14.8366 43.734 15.3986C43.9356 15.6473 44.0349 15.9628 44.0349 16.3441C44.0349 16.5186 44.014 16.7077 43.9722 16.9104C43.6086 18.6154 42.192 19.4449 39.6397 19.4449H38.1728L39.2103 14.5493H40.8202ZM31.2483 8.39363H31.0038C30.237 12.0053 29.4054 15.4801 28.6531 19.026C29.6122 20.2149 30.1022 21.6859 30.1022 23.3011C30.1022 23.8924 30.0385 24.5025 29.9047 25.1241C29.6018 26.5617 28.7064 29.0963 26.1144 30.9904L25.8501 32.2399H35.6916C35.6916 32.2399 36.9735 26.1898 37.102 25.5974H41.6978C48.8397 25.5974 52.9361 21.3547 53.8294 17.1486C53.9575 16.5581 54.023 15.9558 54.0247 15.3516C54.0247 13.7824 53.5546 12.3616 52.6488 11.2406C51.1444 9.37673 48.5001 8.39363 45.0086 8.39363H31.2472H31.2483ZM29.2664 8.39363H8.01527L2.95662 32.2399H17.1317C25.8626 32.2399 28.1454 27.6242 28.7273 24.8734C29.1452 22.9124 28.7921 21.1102 27.7327 19.8022C26.4101 18.1672 24.1179 17.3366 20.921 17.3366H15.9605L16.461 14.9776H28.3052L29.7762 8.39363H29.2664ZM113.099 8.39363H99.538L94.4166 19.9297L94.0666 8.39363H80.0044L76.5567 24.6342L83.1125 32.7623L86.8548 16.1717L87.4409 32.2399H95.5857C95.5857 32.2399 101.28 20.0864 103.007 16.3964L99.6456 32.2399H108.547L113.611 8.39363H113.099ZM66.4708 52.0326L64.7825 40.2322H58.7041L52.0732 52.0326H56.5865L57.9175 49.4876H61.4529L61.7224 52.0326H66.4708ZM61.5344 46.7221H59.0259L61.0224 43.0311H61.0883L61.5344 46.7221ZM51.7012 43.7216L49.9367 52.0326H45.4255L47.189 43.7216H43.2158L43.9576 40.2322H56.4183L55.6754 43.7216H51.7012ZM32.0611 47.6499H31.7926C30.9004 47.6499 30.4052 46.8924 30.6402 45.7777C30.8764 44.665 31.6766 43.9076 32.6044 43.9076H32.8572L32.0611 47.6499ZM38.4466 41.2101H37.7393L38.1154 39.4403H33.6021L33.227 41.2101H32.5197C29.1348 41.2101 26.9826 43.1836 26.431 45.7777C25.802 48.7448 27.5823 50.3484 30.5953 50.3484H31.2869L30.8858 52.2352H35.399L35.7981 50.3484H36.4898C39.5028 50.3484 41.9663 48.7458 42.5952 45.7777C43.1469 43.1836 41.8294 41.2101 38.4466 41.2101ZM36.4396 47.6509H36.1701L36.9641 43.9086H37.2169C38.1436 43.9086 38.6231 44.665 38.387 45.7787C38.1488 46.8924 37.3318 47.6509 36.4396 47.6509ZM26.7047 52.0326L25.0174 40.2322H18.9391L12.3081 52.0326H16.8193L18.1524 49.4876H21.6878L21.9574 52.0326H26.7047ZM21.7704 46.7221H19.2609L21.2584 43.0311H21.3232L21.7704 46.7221ZM7.52633 52.0326L8.44989 47.6823H5.4358L4.5112 52.0326H0L2.50738 40.2322H7.02068L6.1525 44.3119H9.16763L10.0327 40.2322H14.546L12.0396 52.0326H7.52633Z" fill="white"/>
</svg>
