<svg width="20" height="20" viewBox="0 0 20 20" fill="none" xmlns="http://www.w3.org/2000/svg">
<path d="M8.66699 8.66797V2.0013C8.66699 1.26492 9.26395 0.667969 10.0003 0.667969C10.7367 0.667969 11.3337 1.26492 11.3337 2.0013V8.66797H18.0003C18.7367 8.66797 19.3337 9.26492 19.3337 10.0013C19.3337 10.7377 18.7367 11.3346 18.0003 11.3346H11.3337V18.0013C11.3337 18.7377 10.7367 19.3346 10.0003 19.3346C9.26395 19.3346 8.66699 18.7377 8.66699 18.0013V11.3346H2.00033C1.26395 11.3346 0.666992 10.7377 0.666992 10.0013C0.666992 9.26492 1.26395 8.66797 2.00033 8.66797H8.66699Z" fill="black"/>
</svg>
